<svg width="289" height="288" viewBox="0 0 289 288" fill="none" xmlns="http://www.w3.org/2000/svg">
<path d="M214.557 236.72H73.1238C70.9534 236.733 68.8551 235.942 67.2338 234.499C65.6125 233.056 64.5832 231.064 64.3445 228.906L57.409 124.829C57.3724 123.666 57.5744 122.508 58.0027 121.426C58.431 120.345 59.0763 119.362 59.8989 118.54C60.7215 117.717 61.7041 117.072 62.7858 116.643C63.8674 116.215 65.0254 116.013 66.1882 116.05H222.941C225.27 116.05 227.503 116.975 229.149 118.621C230.796 120.267 231.721 122.5 231.721 124.829L223.336 228.994C223.078 231.135 222.04 233.107 220.42 234.532C218.801 235.956 216.714 236.735 214.557 236.72Z" stroke="#959595" stroke-width="13" stroke-linecap="round" stroke-linejoin="round"/>
<path d="M100.647 144.539V96.253C100.647 84.611 105.272 73.4459 113.504 65.2138C121.736 56.9817 132.901 52.3569 144.543 52.3569C156.185 52.3569 167.35 56.9817 175.582 65.2138C183.815 73.4459 188.439 84.611 188.439 96.253V144.539" stroke="#959595" stroke-width="13" stroke-linecap="round" stroke-linejoin="round"/>
</svg>
